<?xml version="1.0"?>
<!DOCTYPE svg PUBLIC "-//W3C//DTD SVG 1.1//EN" "http://www.w3.org/Graphics/SVG/1.1/DTD/svg11.dtd">
<svg viewBox="0 0 64 64" width="1280" height="1280" xmlns="http://www.w3.org/2000/svg" xmlns:xlink="http://www.w3.org/1999/xlink">
    <defs>
        <mask id="themask" maskUnits="userSpaceOnUse" x="0" y="0" width="72" height="72">
            <rect x="2" y="2" width="60" height="60" fill="white"/>
            <path d="M 8 23 a 12 12 0 1 1 24 0 a 12 12 0 1 1 24 0 c 0 18 -24 22 -24 36 c 0 -14 -24 -18 -24 -36 z" fill="black"/>
            <circle cx="21.5" cy="31" r="3.5" fill="white"/>
            <circle cx="32" cy="31" r="3.5" fill="white"/>
            <circle cx="42.5" cy="31" r="3.5" fill="white"/>
        </mask>
        <linearGradient id="flavour" x1="0" y1="32" x2="64" y2="32" gradientUnits="userSpaceOnUse">
            <stop stop-color="#00495c" offset="0"/>
            <stop stop-color="#7476fc" offset=".3125"/>
            <stop stop-color="#c258f2" offset=".5"/>
            <stop stop-color="#e63ca4" offset=".6875"/>
            <stop stop-color="#f9a59b" offset="1"/>
        </linearGradient>
    </defs>
    <rect x="0" y="0" width="64" height="64" fill="#f5f5f5"/>
    <rect x="0" y="0" width="64" height="64" fill="url(#flavour)" opacity=".15"/>
    <rect x="0" y="0" width="64" height="64" fill="url(#flavour)" mask="url(#themask)"/>
</svg>
